<svg width="66" height="46" viewBox="0 0 66 46" fill="none" xmlns="http://www.w3.org/2000/svg">
<path d="M46.4683 13.3948L43.5058 16.3067L34.8454 0.5L24.8911 20.4741L18.7954 15.0758L0 45.5H66L46.4683 13.3948ZM12.9357 43.9574H9.69537L13.6767 38.6499L12.9357 43.9574ZM7.39356 43.9404L3.19988 43.9977L18.0025 19.3025L7.39356 43.9404ZM33.4645 31.7923V40.7428L26.7054 30.0226L23.7422 32.3119V26.5877L19.2984 17.6372L27.6311 25.1311L29.1124 24.5064L36.9827 32.3119L33.4645 31.7923ZM34.4516 17.6372L32.0446 20.1004L31.7055 18.6431L27.2617 23.2919L25.626 21.557L34.8541 3.58647L35.2243 13.7508L37.4162 14.0631L41.891 22.5281L34.4516 17.6372ZM43.7728 18.9697L46.1184 16.3681L52.7542 27.2267L45.8406 19.4553L50.4078 34.9974L43.7728 18.9697Z" fill="#393939"/>
</svg>
