<svg width="197" height="46" viewBox="0 0 197 46" fill="none" xmlns="http://www.w3.org/2000/svg">
<path d="M46.4683 13.3948L43.5058 16.3067L34.8454 0.5L24.8911 20.4741L18.7954 15.0758L0 45.5H66L46.4683 13.3948ZM12.9357 43.9574H9.69537L13.6767 38.6499L12.9357 43.9574ZM7.39356 43.9404L3.19988 43.9977L18.0025 19.3025L7.39356 43.9404ZM33.4645 31.7923V40.7428L26.7054 30.0226L23.7422 32.3119V26.5877L19.2984 17.6372L27.6311 25.1311L29.1124 24.5064L36.9827 32.3119L33.4645 31.7923ZM34.4516 17.6372L32.0446 20.1004L31.7055 18.6431L27.2617 23.2919L25.626 21.557L34.8541 3.58647L35.2243 13.7508L37.4162 14.0631L41.891 22.5281L34.4516 17.6372ZM43.7728 18.9697L46.1184 16.3681L52.7542 27.2267L45.8406 19.4553L50.4078 34.9974L43.7728 18.9697Z" fill="#393939"/>
<path d="M89.756 39.5L88.3 34.74H81.02L79.564 39.5H75L82.056 19.424H87.236L94.32 39.5H89.756ZM85.836 26.536C85.7427 26.2187 85.6213 25.8173 85.472 25.332C85.3227 24.8467 85.1733 24.352 85.024 23.848C84.8747 23.344 84.7533 22.9053 84.66 22.532C84.5667 22.9053 84.436 23.372 84.268 23.932C84.1187 24.4733 83.9693 24.996 83.82 25.5C83.6893 25.9853 83.5867 26.3307 83.512 26.536L82.084 31.184H87.292L85.836 26.536ZM110.068 28.216C110.068 29.0373 109.807 29.7373 109.284 30.316C108.78 30.8947 108.024 31.268 107.016 31.436V31.548C108.08 31.6787 108.929 32.0427 109.564 32.64C110.217 33.2373 110.544 34.0027 110.544 34.936C110.544 35.5893 110.413 36.196 110.152 36.756C109.909 37.316 109.517 37.8013 108.976 38.212C108.435 38.6227 107.735 38.94 106.876 39.164C106.036 39.388 105.009 39.5 103.796 39.5H96.516V24.212H103.796C104.991 24.212 106.055 24.3427 106.988 24.604C107.94 24.8467 108.687 25.2573 109.228 25.836C109.788 26.4147 110.068 27.208 110.068 28.216ZM106.232 34.712C106.232 34.1147 105.999 33.6853 105.532 33.424C105.065 33.144 104.365 33.004 103.432 33.004H100.688V36.616H103.516C104.3 36.616 104.944 36.476 105.448 36.196C105.971 35.8973 106.232 35.4027 106.232 34.712ZM105.84 28.552C105.84 28.0667 105.653 27.712 105.28 27.488C104.907 27.264 104.356 27.152 103.628 27.152H100.688V30.176H103.152C104.029 30.176 104.692 30.0547 105.14 29.812C105.607 29.5507 105.84 29.1307 105.84 28.552ZM126.781 27.348H121.769V39.5H117.597V27.348H112.585V24.212H126.781V27.348ZM143.217 31.828C143.217 33.0973 143.039 34.2267 142.685 35.216C142.349 36.2053 141.854 37.0453 141.201 37.736C140.566 38.408 139.791 38.9213 138.877 39.276C137.962 39.612 136.926 39.78 135.769 39.78C134.705 39.78 133.715 39.612 132.801 39.276C131.905 38.9213 131.13 38.408 130.477 37.736C129.823 37.0453 129.31 36.2053 128.937 35.216C128.582 34.2267 128.405 33.0973 128.405 31.828C128.405 30.1293 128.703 28.7013 129.301 27.544C129.898 26.368 130.757 25.472 131.877 24.856C132.997 24.24 134.322 23.932 135.853 23.932C137.29 23.932 138.559 24.24 139.661 24.856C140.762 25.472 141.63 26.368 142.265 27.544C142.899 28.7013 143.217 30.1293 143.217 31.828ZM132.661 31.828C132.661 32.836 132.763 33.6853 132.969 34.376C133.193 35.048 133.538 35.5613 134.005 35.916C134.471 36.252 135.078 36.42 135.825 36.42C136.571 36.42 137.169 36.252 137.617 35.916C138.083 35.5613 138.419 35.048 138.625 34.376C138.849 33.6853 138.961 32.836 138.961 31.828C138.961 30.82 138.849 29.98 138.625 29.308C138.419 28.636 138.083 28.132 137.617 27.796C137.15 27.46 136.543 27.292 135.797 27.292C134.695 27.292 133.893 27.6747 133.389 28.44C132.903 29.1867 132.661 30.316 132.661 31.828ZM157.22 24.212V27.348H150.836V39.5H146.664V24.212H157.22ZM164.068 30.26C164.068 30.5773 164.049 30.9693 164.012 31.436C163.993 31.9027 163.965 32.3787 163.928 32.864C163.909 33.3493 163.881 33.7787 163.844 34.152C163.806 34.5253 163.778 34.7867 163.76 34.936L170.816 24.212H175.828V39.5H171.796V33.396C171.796 32.892 171.814 32.3413 171.852 31.744C171.889 31.128 171.926 30.5587 171.964 30.036C172.02 29.4947 172.057 29.084 172.076 28.804L165.048 39.5H160.036V24.212H164.068V30.26ZM193.936 24.212V36.448H196.176V44.988H192.424V39.5H182.148V44.988H178.396V36.448H179.684C180.356 35.4213 180.925 34.2547 181.392 32.948C181.859 31.6227 182.232 30.2133 182.512 28.72C182.792 27.2267 182.997 25.724 183.128 24.212H193.936ZM186.628 27.348C186.479 28.468 186.292 29.56 186.068 30.624C185.844 31.6693 185.564 32.6773 185.228 33.648C184.911 34.6187 184.519 35.552 184.052 36.448H189.764V27.348H186.628Z" fill="#393939"/>
</svg>
