<svg width="20" height="20" viewBox="0 0 20 20" fill="none" xmlns="http://www.w3.org/2000/svg">
<path fill-rule="evenodd" clip-rule="evenodd" d="M8.47181 5.15846C9.0591 4.27581 8.91149 3.09618 8.12481 2.38547C7.33812 1.67476 6.14961 1.6473 5.33094 2.32091C4.51227 2.99453 4.31033 4.16608 4.85623 5.07491C5.40213 5.98374 6.53124 6.35577 7.51047 5.94946C7.9018 5.78617 8.23622 5.51101 8.47181 5.15846Z" stroke="#858585" stroke-width="1.75" stroke-linecap="round" stroke-linejoin="round"/>
<path fill-rule="evenodd" clip-rule="evenodd" d="M8.47181 17.1926C9.0591 16.31 8.91149 15.1304 8.12481 14.4197C7.33812 13.7089 6.14961 13.6815 5.33094 14.3551C4.51227 15.0287 4.31033 16.2003 4.85623 17.1091C5.40213 18.0179 6.53124 18.39 7.51047 17.9836C7.9018 17.8204 8.23622 17.5452 8.47181 17.1926V17.1926Z" stroke="#858585" stroke-width="1.75" stroke-linecap="round" stroke-linejoin="round"/>
<path fill-rule="evenodd" clip-rule="evenodd" d="M11.5283 11.1751C10.941 10.2924 11.0886 9.11279 11.8753 8.40207C12.662 7.69136 13.8505 7.6639 14.6692 8.33751C15.4878 9.01113 15.6898 10.1827 15.1439 11.0915C14.598 12.0003 13.4689 12.3724 12.4896 11.9661C12.0983 11.8028 11.7639 11.5276 11.5283 11.1751V11.1751Z" stroke="#858585" stroke-width="1.75" stroke-linecap="round" stroke-linejoin="round"/>
<path d="M8.83337 3.08887C8.35012 3.08887 7.95837 3.48062 7.95837 3.96387C7.95837 4.44712 8.35012 4.83887 8.83337 4.83887V3.08887ZM18.1667 4.83887C18.65 4.83887 19.0417 4.44712 19.0417 3.96387C19.0417 3.48062 18.65 3.08887 18.1667 3.08887V4.83887ZM4.54821 4.83887C5.03146 4.83887 5.42321 4.44712 5.42321 3.96387C5.42321 3.48062 5.03146 3.08887 4.54821 3.08887V4.83887ZM1.83337 3.08887C1.35012 3.08887 0.958374 3.48062 0.958374 3.96387C0.958374 4.44712 1.35012 4.83887 1.83337 4.83887V3.08887ZM8.83337 15.1241C8.35012 15.1241 7.95837 15.5159 7.95837 15.9991C7.95837 16.4824 8.35012 16.8741 8.83337 16.8741V15.1241ZM18.1667 16.8741C18.65 16.8741 19.0417 16.4824 19.0417 15.9991C19.0417 15.5159 18.65 15.1241 18.1667 15.1241V16.8741ZM4.54821 16.8741C5.03146 16.8741 5.42321 16.4824 5.42321 15.9991C5.42321 15.5159 5.03146 15.1241 4.54821 15.1241V16.8741ZM1.83337 15.1241C1.35012 15.1241 0.958374 15.5159 0.958374 15.9991C0.958374 16.4824 1.35012 16.8741 1.83337 16.8741V15.1241ZM11.1667 10.8568C11.65 10.8568 12.0417 10.465 12.0417 9.98177C12.0417 9.49852 11.65 9.10677 11.1667 9.10677V10.8568ZM1.83337 9.10677C1.35012 9.10677 0.958374 9.49852 0.958374 9.98177C0.958374 10.465 1.35012 10.8568 1.83337 10.8568V9.10677ZM15.4518 9.10677C14.9686 9.10677 14.5768 9.49852 14.5768 9.98177C14.5768 10.465 14.9686 10.8568 15.4518 10.8568V9.10677ZM18.1667 10.8568C18.6499 10.8568 19.0417 10.465 19.0417 9.98177C19.0417 9.49852 18.6499 9.10677 18.1667 9.10677V10.8568ZM8.83337 4.83887H18.1667V3.08887H8.83337V4.83887ZM4.54821 3.08887H1.83337V4.83887H4.54821V3.08887ZM8.83337 16.8741H18.1667V15.1241H8.83337V16.8741ZM4.54821 15.1241H1.83337V16.8741H4.54821V15.1241ZM11.1667 9.10677H1.83337V10.8568H11.1667V9.10677ZM15.4518 10.8568H18.1667V9.10677H15.4518V10.8568Z" fill="#858585"/>
</svg>
