<svg width="152" height="79" viewBox="0 0 152 79" fill="none" xmlns="http://www.w3.org/2000/svg">
<path fill-rule="evenodd" clip-rule="evenodd" d="M29.4182 46.76V66.2628H40.3077C40.3077 66.2628 45.399 66.1209 46.1768 60.8019C46.9546 55.483 42.712 54.4193 42.712 54.4193C44.4708 51.626 42.8047 48.0489 39.7016 47.1317C38.977 46.9176 37.9793 46.7245 36.7369 46.7245C33.9438 46.7245 29.4182 46.76 29.4182 46.76ZM33.4845 57.7699H39.9016C41.0391 57.7699 41.9698 58.7033 41.9698 59.8442C41.9698 60.9851 41.0391 61.9186 39.9016 61.9186H33.4845V57.7699ZM33.4845 50.991H37.9633C38.6407 50.991 39.1948 51.5469 39.1948 52.2263V52.2264C39.1948 52.9056 38.6407 53.4616 37.9633 53.4616H33.4845V50.991Z" fill="white"/>
<path fill-rule="evenodd" clip-rule="evenodd" d="M0.836182 66.1809H5.47701L7.98268 60.019C10.7947 60.3972 15.9289 60.526 19.8346 58.8328L22.8225 66.1809H27.4634L16.6896 39.6858H16.2507H12.0488H11.6098L0.836182 66.1809ZM10.1481 54.6937L14.1498 44.8525L17.4371 52.9366L16.0244 51.6151L14.499 53.8937L13.8499 52.966L13.2657 53.6494L12.3408 51.8267L10.1481 54.6937Z" fill="white"/>
<path fill-rule="evenodd" clip-rule="evenodd" d="M52.9295 66.2628H56.9958V50.5079C58.9576 50.1914 60.8871 49.7136 62.7771 49.0373C62.4177 47.749 62.0581 46.4605 61.6987 45.1723C56.7944 46.6061 51.854 46.8838 46.9023 46.8034C46.9023 48.1744 46.9023 49.5456 46.9023 50.9167C48.9332 51.0348 50.9447 51.0555 52.9295 50.9431V66.2628Z" fill="white"/>
<path fill-rule="evenodd" clip-rule="evenodd" d="M94.3149 66.2628H98.3812V51.0079C102.132 50.9311 105.792 50.3691 109.307 49.0373C108.967 47.749 108.628 46.4605 108.288 45.1723C103.657 46.6061 98.9912 46.8838 94.3149 46.8034V46.8388V50.9167V66.2628ZM114.998 57.5826C114.998 57.5826 123.553 50.7399 123.943 46.8388H128.009V66.2628H123.943V54.2494L119.065 59.0365C119.065 59.0365 115.598 62.0711 114.998 66.2628H110.932V46.8388H114.998V57.5826ZM144.095 62.1845H135.824C137.236 59.9597 137.262 55.2783 137.189 50.9171H144.095V62.1845ZM149.824 66.5008V62.1845H148.161V50.9171V46.8388H144.095H137.131C135.775 46.8388 134.42 46.8388 133.064 46.8388V50.9058C133.018 55.0947 132.692 59.4951 130.838 62.1845V66.2628V68.5752H134.975V66.2628H144.095H145.687V68.5752H147.756C148.893 68.5752 149.824 67.6417 149.824 66.5008Z" fill="white"/>
<path fill-rule="evenodd" clip-rule="evenodd" d="M77.6617 47.6497C81.4711 47.6497 84.5595 50.6906 84.5595 54.7541C84.5595 58.8175 81.4711 62.1118 77.6617 62.1118C73.8522 62.1118 70.7639 58.8175 70.7639 54.7541C70.7639 50.6906 73.8522 47.6497 77.6617 47.6497ZM77.6617 41.93C84.5215 41.93 90.0827 47.1319 90.0827 54.1957C90.0827 59.0276 86.8509 64.4406 84.4701 68.1985C80.4187 74.5937 78.9084 76.3767 78.9084 76.3767C78.9084 76.3767 78.5486 77.0423 77.6617 77.1374C76.7747 77.0423 76.415 76.3767 76.415 76.3767C76.415 76.3767 74.9046 74.5937 70.8532 68.1985C68.4725 64.4406 65.2407 59.0276 65.2407 54.1957C65.2407 47.1319 70.8018 41.93 77.6617 41.93Z" fill="white"/>
<path d="M69.6012 22.3876C69.4834 22.5187 69.2817 22.5295 69.1509 22.4113C69.0201 22.2932 69.0095 22.0909 69.1273 21.9598L74.8428 15.5868C74.9606 15.4557 75.1623 15.4449 75.293 15.5631L77.3147 17.5338L80.2571 13.7778C80.366 13.6389 80.5665 13.6148 80.705 13.724C80.7237 13.7388 80.7402 13.7552 80.7547 13.7729L85.1184 19.1148L86.7291 16.803C86.8297 16.6588 87.0279 16.6234 87.1719 16.7242C87.2039 16.7467 87.2305 16.774 87.2514 16.8044L90.7321 21.8321C90.832 21.9772 90.7956 22.1761 90.651 22.2763C90.5064 22.3763 90.3081 22.3399 90.2082 22.1949L88.2134 19.3132L87.3448 19.98C87.185 20.0843 87.0256 20.0894 86.8658 19.98L85.9655 19.0126L85.4142 19.8038C85.3954 19.8364 85.3706 19.8662 85.3399 19.8915C85.2036 20.0033 85.0024 19.9832 84.8908 19.8464L82.5309 16.9571L81.2224 17.8343C81.0577 17.9488 80.884 17.9869 80.6875 17.8343C80.6875 17.8343 79.496 16.7064 79.08 16.3159L77.5975 18.2082L77.5751 18.2332C77.4525 18.3596 77.2508 18.3624 77.1248 18.2395L76.1295 17.2694C75.1493 18.1666 75.0047 18.0011 74.9121 17.9624C74.8362 17.9307 74.3841 17.5518 74.1244 17.3443L69.6012 22.3876Z" fill="white"/>
<path fill-rule="evenodd" clip-rule="evenodd" d="M88.9785 1.42335C91.5848 1.42335 93.6977 3.59904 93.6977 6.2829C93.6977 8.11872 92.4698 10.1753 91.5653 11.603C90.026 14.0328 89.4521 14.7102 89.4521 14.7102C89.4521 14.7102 89.3155 14.963 88.9785 14.9993C88.6415 14.963 88.5048 14.7102 88.5048 14.7102C88.5048 14.7102 87.931 14.0328 86.3917 11.603C85.4872 10.1753 84.2593 8.11872 84.2593 6.2829C84.2593 3.59904 86.3722 1.42335 88.9785 1.42335ZM88.9785 3.69961C90.4258 3.69961 91.5993 4.95108 91.5993 6.49504C91.5993 8.03887 90.4258 9.29046 88.9785 9.29046C87.5311 9.29046 86.3578 8.03887 86.3578 6.49504C86.3578 4.95108 87.5311 3.69961 88.9785 3.69961Z" fill="white"/>
<path fill-rule="evenodd" clip-rule="evenodd" d="M58.8939 36.8923C58.8939 36.3915 59.1434 36.0433 59.3425 35.5942C59.7458 34.6845 60.3115 33.5546 60.5578 32.6022C60.6025 32.4289 60.7159 32.0983 60.7159 31.9134C60.8283 31.9433 61.1126 32.4521 61.1872 32.5529C61.6687 33.203 62.0494 33.9261 62.4415 34.632C63.0039 35.807 62.8376 36.1903 63.1135 37.295C63.5262 38.9466 63.8822 38.7698 65.2431 38.5725C65.5225 38.528 65.7941 38.4789 66.0681 38.419C66.4498 38.319 66.6028 37.9477 66.3155 37.077C65.2939 35.3419 65.8361 32.8827 64.8411 31.2984C64.7804 31.2015 64.7153 31.1291 64.6471 31.0428C63.8332 30.0099 62.4588 29.8099 62.4588 28.0732C62.4588 27.8118 62.4875 27.4853 62.5261 27.2402L62.67 26.4841C62.8608 26.5352 63.7688 27.4191 65.6025 27.5685C65.8855 27.5915 66.6622 27.6037 66.8423 27.5169C66.8423 28.0175 66.9256 28.8866 66.9214 29.3709L67.1816 33.0296C67.2263 33.4476 67.4369 38.0114 67.4787 38.035C67.6675 38.3099 68.2368 38.3016 68.4332 37.9848C68.4553 37.9495 68.4692 37.9205 68.4789 37.8966C68.5049 37.707 68.5332 36.9878 68.4756 36.4725C68.3783 35.6023 68.3952 34.6917 68.2985 33.8163C68.165 32.6095 68.17 31.53 68.0792 30.3815C68.0456 30.0597 67.998 29.6735 67.9777 29.3443C67.9612 29.0743 67.8051 27.4145 67.7401 27.2786C68.0141 27.1467 68.3421 27.048 68.5773 26.8471C69.1678 26.3432 69.2027 25.803 68.7919 25.1643C68.5266 24.752 68.1205 24.6316 67.6608 24.5242C67.6608 24.036 67.4726 23.093 67.3254 22.742C66.9372 21.8167 66.6045 22.5742 66.6045 23.2529V24.3389C66.6045 24.4301 66.6241 24.4413 66.631 24.5242C65.6718 24.5242 64.8464 24.2618 64.3382 23.4868C64.0843 23.0997 63.9429 22.6337 63.7179 22.2285C63.6881 22.1748 63.6735 22.136 63.6462 22.0885C63.597 22.0027 63.5379 21.9235 63.4735 21.838C63.3948 21.7332 63.1129 21.4487 63.0926 21.3726C63.3154 21.3676 63.7984 21.1428 63.9487 21.0396C64.5544 20.6234 64.9793 19.9978 65.1367 19.2646C65.2682 18.651 65.2377 17.294 64.3865 17.294C63.9784 17.294 63.779 17.5434 63.779 17.9031C63.779 18.1474 63.9374 18.3823 63.8976 18.6819C63.8508 19.0336 63.8234 19.1382 63.6821 19.395C63.2401 20.1992 62.1643 20.384 61.5146 19.7242C61.2237 19.4289 61.0857 19.1751 61.0857 18.7241C61.0857 18.2473 61.337 17.8779 61.6331 17.5783C61.9719 17.2358 62.3522 17.2375 63.0137 17.2413L63.6035 17.1974C63.7218 17.1729 63.6717 17.1986 63.7483 17.1307C63.8964 16.999 63.9958 16.7226 63.8646 16.5464C63.6792 16.298 62.972 16.0493 62.6436 16.0493C62.1306 16.0493 61.762 16.107 61.3321 16.3228C61.0264 16.4762 60.8054 16.6346 60.5773 16.8637C60.0918 17.3513 59.7918 17.9571 59.7918 18.6976C59.7918 19.0044 59.8667 19.365 59.9574 19.5909C60.0136 19.731 60.0598 19.8206 60.1258 19.9517C60.183 20.0654 60.2936 20.1885 60.3198 20.2867C59.8996 20.385 59.5096 21.0046 59.3692 21.1078C59.0716 20.9078 58.8948 20.6591 58.3652 20.6313C58.1041 20.6177 57.9788 20.6156 57.7164 20.6684C57.4788 20.716 57.3555 20.7648 57.1683 20.8602C56.496 21.2024 56.1279 21.8392 55.8314 22.5121C55.3818 23.5329 55.2002 25.008 55.001 26.1286C54.8296 27.0936 54.5217 28.1371 55.4142 28.8617C55.8643 29.2271 56.3796 29.3709 56.9927 29.3709L56.2118 33.699C55.9364 35.351 55.6196 37.008 55.6196 38.6933C55.6196 38.7404 55.6247 38.7662 55.6306 38.7915C55.6179 39.3604 56.535 39.5426 56.9651 39.5396C57.8007 39.5346 59.8415 39.2877 59.5655 38.0412C59.3555 37.3966 58.8939 37.3216 58.8939 36.8923ZM61.3762 27.9408C61.3762 28.5383 61.4525 28.9662 61.6577 29.3797C61.7654 29.5969 61.8554 29.7077 62.0016 29.8822C62.8666 30.914 64.1404 31.1385 64.438 33.3976L64.6226 34.9075C64.6973 35.4304 64.7654 35.8809 64.8824 36.3419C64.9908 36.7682 65.1803 37.2337 65.3635 37.5809C65.065 37.6506 64.7061 37.7563 64.4541 37.5131C64.3419 37.4031 64.5364 37.6025 64.4287 37.4855C64.0908 37.1185 64.0373 36.4738 63.9312 35.9717C63.6586 34.6817 63.291 34.2378 62.7381 33.3282L62.2264 32.5437C61.958 32.1399 61.4378 31.4308 61.0794 31.0985L60.7465 30.7968C60.6168 30.6522 60.585 30.6048 60.3319 30.5764C60.027 30.5421 59.6832 30.7741 59.6602 31.1723C59.6038 32.1543 59.1956 33.0151 58.8151 33.8735L58.2863 34.9588C57.8288 35.8841 57.2943 36.7444 57.8105 37.7405C57.9233 37.9579 58.1051 38.0883 58.2866 38.2431C57.7018 38.2431 57.2518 38.4263 57.0049 38.3918C56.5413 38.3271 56.4887 38.7039 56.7273 36.9705C56.7828 36.567 56.835 36.1972 56.9021 35.7951L57.3812 32.8857C57.4161 32.6761 57.4463 32.5052 57.4832 32.2993L58.9297 25.5665C59.2313 24.5317 59.4121 23.3633 59.906 22.4406C60.212 21.8692 60.7157 21.2402 61.4289 21.2402C62.1199 21.2402 62.9244 22.4936 63.1344 22.9991C63.3765 23.5822 63.4692 24.0164 63.9442 24.4911C64.1495 24.6964 64.3229 24.8621 64.5893 25.0094C64.9308 25.1983 65.0248 25.2353 65.3998 25.3618C66.5935 25.7644 67.2628 25.369 67.6278 25.6697C68.2325 26.1679 66.8919 26.3252 66.763 26.3252C65.9976 26.3252 65.7745 26.3641 65.0101 26.0971C64.6456 25.9698 64.6241 25.9255 64.3601 25.7954L63.4154 25.1009C63.1083 24.7988 63.0584 24.5506 62.5644 24.5506C62.2589 24.5506 62.0097 24.8177 61.9029 25.0261L61.6612 25.9225C61.517 26.5008 61.3762 27.2143 61.3762 27.9408ZM57.3095 27.8877C57.127 27.8724 56.7939 27.8628 56.6388 27.8188C56.0771 27.66 56.375 26.8874 56.4739 26.5464C56.6311 26.004 56.7533 24.9025 56.9774 24.1117C57.1357 23.5526 57.245 23.1406 57.5122 22.6881C57.7327 22.3149 58.1096 22.0042 58.5699 22.1211C58.6504 22.1416 58.6703 22.1723 58.7619 22.1936L58.3162 23.521C57.9893 24.5383 57.5825 26.7127 57.3095 27.8877Z" fill="white"/>
<path d="M79.0913 22.2986L81.5392 20.0267C81.6444 19.929 81.8546 19.9185 81.972 20.0035L85.2005 22.355C85.4083 22.4769 85.4162 22.6475 85.373 22.7774C85.2715 22.8887 85.1412 22.8683 85.0244 22.7833L83.2301 21.4671L82.2696 22.2491C82.1296 22.3215 81.9797 22.3504 81.8041 22.2711C81.8041 22.2711 81.0645 21.6354 80.6907 21.4287L79.339 22.6886C79.0392 22.9142 78.8264 22.6208 79.0913 22.2986Z" fill="white"/>
<path fill-rule="evenodd" clip-rule="evenodd" d="M69.3675 34.2119C69.3234 34.2826 69.3172 34.3805 69.3519 34.4564C69.4428 34.6555 69.7081 34.672 69.8238 34.4865C69.8444 34.4514 69.8684 34.4167 69.8913 34.3828C70.0581 34.1385 70.2498 33.9072 70.4466 33.6871C70.6424 33.4702 70.3926 33.127 70.1134 33.2787C70.09 33.2929 70.0702 33.309 70.0515 33.3296C69.8116 33.5979 69.5751 33.8853 69.3811 34.1895L69.3675 34.2119ZM77.0333 21.8255C77.1078 21.7178 77.0938 21.5705 76.9984 21.4796C76.8804 21.3673 76.6897 21.386 76.5965 21.5205C76.3616 21.855 76.2255 22.2318 76.1849 22.6382C76.1738 22.7425 76.2299 22.8448 76.32 22.8959C76.4911 22.9889 76.6941 22.8812 76.7149 22.6874C76.7474 22.3709 76.8502 22.0861 77.0333 21.8255ZM77.0246 24.0773C76.8831 23.8241 76.5039 23.9389 76.5253 24.2277C76.5296 24.2666 76.5379 24.2955 76.5562 24.3307C76.7247 24.6463 76.9805 25.0059 77.2455 25.2467C77.3381 25.3352 77.4817 25.344 77.5849 25.2687C77.7191 25.1692 77.7323 24.9757 77.6121 24.8598C77.3813 24.645 77.173 24.355 77.0246 24.0773ZM78.8598 25.4529C78.5549 25.431 78.4569 25.8644 78.755 25.9719C78.7775 25.979 78.7969 25.9835 78.8206 25.9852L78.8666 25.9885C79.2171 26.0102 79.569 26.0063 79.9195 25.9847C80.2262 25.9627 80.2635 25.5251 79.9548 25.4563C79.9336 25.4521 79.9099 25.4503 79.888 25.4519C79.8418 25.4556 79.7935 25.457 79.747 25.4592C79.4452 25.4737 79.1611 25.4702 78.8598 25.4529ZM81.4616 25.2991C81.1819 25.3292 81.135 25.7331 81.4181 25.8204C81.4546 25.8303 81.4852 25.8333 81.5234 25.8293C81.8734 25.7902 82.2225 25.7459 82.5729 25.7104L82.5772 25.7099C82.8287 25.6828 82.9065 25.3556 82.6881 25.2162C82.6355 25.1864 82.5836 25.1724 82.5229 25.1788L82.3979 25.1921C82.0854 25.2251 81.7739 25.2642 81.4616 25.2991ZM84.1477 25.1012C83.8745 25.1012 83.7731 25.4541 84.0118 25.5999C84.0549 25.6233 84.0908 25.6332 84.1396 25.6348C84.4859 25.6395 84.8336 25.6589 85.178 25.6946C85.4623 25.7251 85.5876 25.339 85.3358 25.1963C85.3027 25.1783 85.271 25.1678 85.2337 25.1638C84.8736 25.1264 84.5096 25.106 84.1477 25.1012ZM86.8463 25.4648C86.7756 25.4437 86.6972 25.4555 86.6344 25.4939C86.4375 25.6195 86.4777 25.9118 86.7008 25.978C87.0219 26.0659 87.3536 26.1902 87.6539 26.3344C87.9278 26.4613 88.1676 26.1159 87.9546 25.9023C87.9343 25.883 87.9103 25.8654 87.885 25.8536C87.5578 25.6965 87.1964 25.5604 86.8463 25.4648ZM89.2469 26.8643C89.0597 26.647 88.7054 26.8388 88.7919 27.121C88.8046 27.1562 88.8188 27.1837 88.843 27.2119C89.0585 27.4622 89.2173 27.7341 89.332 28.0439C89.4365 28.3266 89.8594 28.2487 89.8478 27.9369C89.8459 27.9108 89.8414 27.8863 89.8322 27.8614C89.6953 27.4913 89.5042 27.1631 89.2469 26.8643ZM90.0142 29.5667C90.0558 29.2754 89.65 29.1356 89.5095 29.4174C89.498 29.4438 89.491 29.4659 89.487 29.4943C89.4479 29.8029 89.3512 30.081 89.1438 30.3161C88.9677 30.5138 89.1452 30.8157 89.4036 30.7558C89.4532 30.7443 89.4987 30.7161 89.5338 30.6792C89.815 30.3693 89.9622 29.9786 90.0142 29.5667ZM87.9433 31.3938C88.2513 31.3497 88.2504 30.8991 87.9309 30.8636C87.9111 30.8622 87.8918 30.8622 87.8721 30.8649C87.5317 30.9121 87.1908 30.9262 86.8475 30.925C86.5519 30.925 86.4718 31.3403 86.7626 31.4453C86.7902 31.4537 86.8158 31.4586 86.8448 31.4586C87.2132 31.4599 87.5782 31.4444 87.9433 31.3938ZM85.228 31.3692C85.2584 31.3725 85.2881 31.3692 85.3173 31.3625C85.6069 31.2843 85.5734 30.8697 85.2774 30.8379C84.9272 30.8058 84.5747 30.7689 84.2256 30.7258C83.9059 30.6915 83.805 31.1498 84.1232 31.2481C84.1364 31.2516 84.1496 31.2545 84.1631 31.2559C84.5172 31.2983 84.8727 31.3366 85.228 31.3692ZM82.5752 31.0531C82.694 31.07 82.8074 31.003 82.8554 30.8937C82.9264 30.7315 82.8186 30.5488 82.6462 30.5241C82.2948 30.4768 81.9434 30.4287 81.5922 30.3805C81.533 30.3721 81.4701 30.3851 81.419 30.4163C81.2046 30.5472 81.2717 30.8738 81.5201 30.9093L82.5752 31.0531ZM79.939 30.6939C79.9851 30.7006 80.032 30.6937 80.0749 30.6764C80.3289 30.5644 80.276 30.203 80.0093 30.1649C79.6514 30.1172 79.2988 30.0701 78.9386 30.0398C78.6466 30.0188 78.5375 30.4138 78.8015 30.546C78.8335 30.5602 78.861 30.5692 78.8958 30.5717C79.2466 30.6012 79.5903 30.6475 79.939 30.6939ZM77.3347 30.5401C77.4461 30.5361 77.5503 30.4544 77.5785 30.3454C77.626 30.1681 77.4926 30.0004 77.3096 30.0069C76.9481 30.0228 76.5835 30.0558 76.2251 30.1067C75.9364 30.1482 75.915 30.5644 76.2058 30.6317C76.2391 30.6379 76.2663 30.64 76.3003 30.6351C76.643 30.587 76.989 30.5554 77.3347 30.5401ZM74.7808 30.9661C75.0576 30.8839 75.0239 30.4667 74.7166 30.444C74.6854 30.4428 74.6572 30.4462 74.6276 30.4549C74.2787 30.5587 73.9355 30.6835 73.5995 30.8237C73.3245 30.9405 73.4204 31.3585 73.7264 31.3357C73.7544 31.3326 73.779 31.3272 73.8056 31.3159C74.1241 31.1828 74.4499 31.0644 74.7808 30.9661ZM72.4274 32.031C72.6824 31.8712 72.515 31.4667 72.2122 31.5485C72.1881 31.5557 72.1662 31.5654 72.145 31.5787C71.8347 31.7712 71.5382 31.9842 71.2506 32.209C71.0043 32.4113 71.2468 32.7958 71.5357 32.6567C71.5518 32.6479 71.5669 32.6391 71.581 32.6275C71.8493 32.415 72.1367 32.2115 72.4274 32.031Z" fill="white"/>
<path d="M54.6206 6.39093C54.6527 6.39725 65.7391 8.57888 78.1311 9.56742C80.0707 9.7222 81.7975 9.87723 83.3322 10.0288C83.5534 10.397 83.7764 10.755 83.9952 11.1004C84.1973 11.4193 84.4005 11.7383 84.6057 12.0567C82.75 11.8614 80.5596 11.6567 77.9839 11.4513C67.7159 10.632 58.3301 8.99949 55.2889 8.43927C54.4255 17.5604 51.0353 32.7646 50.134 36.7113L63.0626 39.1101L75.7682 34.6536C75.9102 34.6039 76.066 34.5876 76.2249 34.6129L93.4386 37.3671C93.9181 32.2277 93.3405 16.7847 93.1994 13.256C92.9979 13.2143 92.8921 13.1918 92.585 13.1357C92.9605 12.5703 93.1825 11.9726 93.5458 11.4014C94.1084 11.5159 94.3492 11.582 94.3519 11.5827C94.7796 11.6974 95.0595 12.0897 95.0503 12.5147C95.1005 13.7072 95.9499 34.2515 95.1783 38.6139C95.0889 39.128 94.6007 39.4719 94.0883 39.3822L94.0359 39.3715L76.1643 36.512L63.4469 40.9727C63.2797 41.0311 63.1072 41.0394 62.9456 41.0054L48.8258 38.3856C48.3154 38.2919 47.9774 37.8006 48.071 37.2887L48.0801 37.2447L48.0783 37.2443C48.0917 37.1871 52.7288 17.3863 53.5011 7.24782C53.5396 6.72765 53.9915 6.33736 54.5101 6.37615C54.5477 6.37893 54.5845 6.38399 54.6206 6.39093Z" fill="white"/>
</svg>
