<svg width="130" height="66" viewBox="0 0 130 66" fill="none" xmlns="http://www.w3.org/2000/svg">
    <path fill-rule="evenodd" clip-rule="evenodd"
        d="M25.3535 39.2491V56.0363H34.7385C34.7385 56.0363 39.1265 55.9142 39.7968 51.3358C40.4671 46.7575 36.8106 45.8419 36.8106 45.8419C38.3265 43.4376 36.8905 40.3585 34.2162 39.5691C33.5917 39.3847 32.7318 39.2185 31.6611 39.2185C29.2538 39.2185 25.3535 39.2491 25.3535 39.2491ZM28.858 48.7259H34.3885C35.3689 48.7259 36.171 49.5294 36.171 50.5115C36.171 51.4935 35.3689 52.297 34.3885 52.297H28.858V48.7259ZM28.858 42.891H32.718C33.3018 42.891 33.7794 43.3695 33.7794 43.9542V43.9544C33.7794 44.539 33.3018 45.0175 32.718 45.0175H28.858V42.891Z"
        fill="#2B2A29" />
    <path fill-rule="evenodd" clip-rule="evenodd"
        d="M0.720703 55.9658H4.72037L6.87985 50.6619C9.30338 50.9875 13.7282 51.0983 17.0944 49.6409L19.6695 55.9658H23.6691L14.3839 33.16H14.0056H10.3842H10.0058L0.720703 55.9658ZM8.74609 46.0781L12.195 37.6072L15.028 44.5657L13.8105 43.4282L12.4959 45.3895L11.9365 44.591L11.433 45.1793L10.6359 43.6104L8.74609 46.0781Z"
        fill="#2B2A29" />
    <path fill-rule="evenodd" clip-rule="evenodd"
        d="M45.6173 56.0363H49.1218V42.4752C50.8126 42.2028 52.4755 41.7914 54.1044 41.2093C53.7946 40.1004 53.4848 38.9914 53.175 37.8825C48.9482 39.1166 44.6904 39.3557 40.4229 39.2865C40.4229 40.4666 40.4229 41.6468 40.4229 42.827C42.1731 42.9287 43.9067 42.9465 45.6173 42.8497V56.0363Z"
        fill="#2B2A29" />
    <path fill-rule="evenodd" clip-rule="evenodd"
        d="M81.2852 56.0363H84.7896V42.9055C88.0225 42.8394 91.1767 42.3557 94.2057 41.2093C93.9131 40.1004 93.6205 38.9914 93.328 37.8825C89.3364 39.1166 85.3153 39.3557 81.2852 39.2865V39.317V42.827V56.0363ZM99.1108 48.5648C99.1108 48.5648 106.483 42.6749 106.82 39.317H110.324V56.0363H106.82V45.6957L102.616 49.8162C102.616 49.8162 99.6282 52.4283 99.1108 56.0363H95.6064V39.317H99.1108V48.5648ZM124.188 52.5259H117.059C118.276 50.6109 118.298 46.5813 118.236 42.8273H124.188V52.5259ZM129.125 56.2412V52.5259H127.692V42.8273V39.317H124.188H118.186C117.017 39.317 115.849 39.317 114.681 39.317V42.8177C114.641 46.4233 114.36 50.211 112.762 52.5259V56.0363V58.0267H116.327V56.0363H124.188H125.56V58.0267H127.343C128.323 58.0267 129.125 57.2232 129.125 56.2412Z"
        fill="#2B2A29" />
    <path fill-rule="evenodd" clip-rule="evenodd"
        d="M66.9325 40.0149C70.2156 40.0149 72.8773 42.6324 72.8773 46.1301C72.8773 49.6277 70.2156 52.4633 66.9325 52.4633C63.6493 52.4633 60.9876 49.6277 60.9876 46.1301C60.9876 42.6324 63.6493 40.0149 66.9325 40.0149ZM66.9325 35.0916C72.8445 35.0916 77.6374 39.5693 77.6374 45.6495C77.6374 49.8086 74.8521 54.4678 72.8002 57.7025C69.3085 63.2072 68.0069 64.742 68.0069 64.742C68.0069 64.742 67.6968 65.3149 66.9325 65.3968C66.168 65.3149 65.858 64.742 65.858 64.742C65.858 64.742 64.5563 63.2072 61.0646 57.7025C59.0128 54.4678 56.2275 49.8086 56.2275 45.6495C56.2275 39.5693 61.0203 35.0916 66.9325 35.0916Z"
        fill="#2B2A29" />
    <path
        d="M59.9858 18.2703C59.8843 18.3832 59.7105 18.3925 59.5978 18.2908C59.485 18.1891 59.4759 18.015 59.5774 17.9021L64.5033 12.4165C64.6048 12.3036 64.7786 12.2944 64.8913 12.3961L66.6337 14.0924L69.1696 10.8594C69.2634 10.7398 69.4362 10.7191 69.5555 10.813C69.5717 10.8258 69.5859 10.8399 69.5984 10.8551L73.3592 15.4533L74.7474 13.4634C74.8341 13.3392 75.0049 13.3087 75.129 13.3955C75.1566 13.4149 75.1795 13.4384 75.1976 13.4646L78.1974 17.7922C78.2835 17.9171 78.2521 18.0883 78.1275 18.1745C78.0028 18.2606 77.8319 18.2293 77.7458 18.1045L76.0266 15.624L75.278 16.198C75.1403 16.2877 75.0029 16.2922 74.8652 16.198L74.0893 15.3653L73.6142 16.0463C73.598 16.0743 73.5766 16.1 73.5501 16.1218C73.4326 16.218 73.2592 16.2007 73.163 16.0829L71.1292 13.596L70.0014 14.351C69.8595 14.4496 69.7098 14.4824 69.5404 14.351C69.5404 14.351 68.5136 13.3802 68.1551 13.044L66.8774 14.6728L66.8581 14.6944C66.7524 14.8032 66.5786 14.8056 66.47 14.6998L65.6122 13.8648C64.7674 14.6371 64.6428 14.4946 64.563 14.4613C64.4976 14.434 64.108 14.1079 63.8841 13.9293L59.9858 18.2703Z"
        fill="#2B2A29" />
    <path fill-rule="evenodd" clip-rule="evenodd"
        d="M76.6854 0.225159C78.9316 0.225159 80.7526 2.09791 80.7526 4.40806C80.7526 5.98826 79.6943 7.75846 78.9148 8.98738C77.5881 11.0788 77.0936 11.662 77.0936 11.662C77.0936 11.662 76.9758 11.8796 76.6854 11.9108C76.3949 11.8796 76.2771 11.662 76.2771 11.662C76.2771 11.662 75.7826 11.0788 74.456 8.98738C73.6764 7.75846 72.6182 5.98826 72.6182 4.40806C72.6182 2.09791 74.4391 0.225159 76.6854 0.225159ZM76.6854 2.18448C77.9327 2.18448 78.9441 3.26169 78.9441 4.59066C78.9441 5.91953 77.9327 6.99685 76.6854 6.99685C75.438 6.99685 74.4267 5.91953 74.4267 4.59066C74.4267 3.26169 75.438 2.18448 76.6854 2.18448Z"
        fill="#2B2A29" />
    <path fill-rule="evenodd" clip-rule="evenodd"
        d="M50.7571 30.7554C50.7571 30.3243 50.9721 30.0246 51.1437 29.6381C51.4913 28.855 51.9789 27.8825 52.1911 27.0627C52.2297 26.9135 52.3274 26.6289 52.3274 26.4697C52.4242 26.4955 52.6693 26.9335 52.7335 27.0202C53.1485 27.5798 53.4766 28.2022 53.8146 28.8098C54.2992 29.8212 54.1559 30.1512 54.3937 31.102C54.7494 32.5236 55.0562 32.3715 56.2291 32.2016C56.4699 32.1633 56.704 32.121 56.9401 32.0695C57.2691 31.9835 57.4009 31.6638 57.1534 30.9144C56.2729 29.4209 56.7401 27.3041 55.8826 25.9404C55.8303 25.857 55.7742 25.7947 55.7155 25.7204C55.014 24.8313 53.8295 24.6592 53.8295 23.1642C53.8295 22.9392 53.8542 22.6582 53.8874 22.4472L54.0115 21.7965C54.1759 21.8404 54.9585 22.6012 56.5389 22.7299C56.7827 22.7497 57.4522 22.7601 57.6073 22.6854C57.6073 23.1163 57.6792 23.8644 57.6755 24.2813L57.8998 27.4306C57.9383 27.7903 58.1198 31.7186 58.1558 31.739C58.3186 31.9756 58.8092 31.9685 58.9785 31.6958C58.9975 31.6654 59.0095 31.6404 59.0179 31.6199C59.0402 31.4566 59.0647 30.8376 59.015 30.394C58.9311 29.645 58.9457 28.8612 58.8624 28.1077C58.7473 27.069 58.7516 26.1398 58.6734 25.1512C58.6444 24.8742 58.6033 24.5417 58.5859 24.2584C58.5716 24.026 58.4371 22.5973 58.3811 22.4803C58.6172 22.3668 58.9 22.2818 59.1027 22.1089C59.6115 21.6752 59.6416 21.2102 59.2876 20.6604C59.0589 20.3055 58.709 20.2019 58.3128 20.1095C58.3128 19.6892 58.1506 18.8775 58.0237 18.5754C57.6892 17.779 57.4024 18.4309 57.4024 19.0152V19.9499C57.4024 20.0284 57.4193 20.0381 57.4252 20.1095C56.5986 20.1095 55.8872 19.8836 55.4492 19.2165C55.2303 18.8832 55.1085 18.4822 54.9146 18.1334C54.8889 18.0872 54.8763 18.0538 54.8528 18.0129C54.8104 17.939 54.7595 17.8709 54.704 17.7972C54.6361 17.7071 54.3932 17.4622 54.3757 17.3967C54.5677 17.3923 54.984 17.1989 55.1135 17.11C55.6355 16.7518 56.0017 16.2133 56.1374 15.5822C56.2507 15.054 56.2244 13.886 55.4908 13.886C55.1391 13.886 54.9673 14.1007 54.9673 14.4103C54.9673 14.6205 55.1038 14.8227 55.0695 15.0807C55.0292 15.3833 55.0055 15.4734 54.8838 15.6945C54.5028 16.3867 53.5756 16.5457 53.0157 15.9778C52.765 15.7236 52.646 15.5051 52.646 15.117C52.646 14.7065 52.8626 14.3885 53.1179 14.1307C53.4098 13.8359 53.7376 13.8374 54.3077 13.8406L54.816 13.8028C54.918 13.7817 54.8748 13.8039 54.9408 13.7454C55.0685 13.6321 55.1541 13.3941 55.041 13.2425C54.8813 13.0287 54.2718 12.8146 53.9887 12.8146C53.5466 12.8146 53.2289 12.8642 52.8584 13.05C52.595 13.182 52.4045 13.3184 52.2079 13.5156C51.7895 13.9353 51.5309 14.4567 51.5309 15.0941C51.5309 15.3582 51.5955 15.6686 51.6737 15.863C51.7221 15.9836 51.7619 16.0608 51.8188 16.1736C51.8681 16.2715 51.9634 16.3774 51.986 16.4619C51.6238 16.5466 51.2877 17.0799 51.1667 17.1687C50.9102 16.9966 50.7579 16.7825 50.3014 16.7586C50.0764 16.7469 49.9684 16.745 49.7423 16.7905C49.5375 16.8315 49.4312 16.8735 49.2699 16.9556C48.6904 17.2502 48.3732 17.7983 48.1177 18.3775C47.7302 19.2562 47.5737 20.5259 47.402 21.4904C47.2543 22.3211 46.9889 23.2193 47.7581 23.843C48.1461 24.1575 48.5901 24.2813 49.1185 24.2813L48.4455 28.0068C48.2082 29.4287 47.9351 30.855 47.9351 32.3056C47.9351 32.3462 47.9396 32.3683 47.9447 32.3902C47.9337 32.8798 48.7241 33.0366 49.0948 33.0341C49.8149 33.0298 51.5738 32.8173 51.3359 31.7443C51.1549 31.1894 50.7571 31.125 50.7571 30.7554ZM52.8964 23.0503C52.8964 23.5646 52.9622 23.9329 53.139 24.2889C53.2319 24.4758 53.3094 24.5712 53.4355 24.7214C54.1809 25.6095 55.2788 25.8027 55.5352 27.7473L55.6943 29.047C55.7587 29.497 55.8174 29.8848 55.9183 30.2817C56.0116 30.6486 56.1749 31.0493 56.3329 31.3481C56.0756 31.4082 55.7663 31.4991 55.5491 31.2897C55.4524 31.1951 55.62 31.3667 55.5272 31.266C55.236 30.9501 55.1899 30.3952 55.0984 29.963C54.8635 28.8526 54.5467 28.4705 54.0702 27.6876L53.6291 27.0123C53.3979 26.6647 52.9495 26.0544 52.6406 25.7684L52.3538 25.5087C52.2419 25.3841 52.2146 25.3434 51.9964 25.3189C51.7336 25.2894 51.4373 25.4891 51.4175 25.8319C51.3689 26.6771 51.0171 27.4181 50.6891 28.1569L50.2335 29.0911C49.8391 29.8875 49.3785 30.6281 49.8234 31.4855C49.9206 31.6726 50.0772 31.7849 50.2337 31.9181C49.7297 31.9181 49.3419 32.0758 49.1291 32.0461C48.7295 31.9904 48.6841 32.3147 48.8898 30.8227C48.9377 30.4754 48.9826 30.157 49.0405 29.811L49.4534 27.3067C49.4834 27.1263 49.5095 26.9791 49.5413 26.802L50.7879 21.0066C51.0479 20.1159 51.2037 19.1102 51.6294 18.316C51.8931 17.8241 52.3272 17.2827 52.9419 17.2827C53.5374 17.2827 54.2307 18.3616 54.4117 18.7967C54.6204 19.2986 54.7003 19.6724 55.1096 20.081C55.2866 20.2577 55.436 20.4003 55.6656 20.5271C55.9599 20.6897 56.0409 20.7215 56.3642 20.8304C57.3929 21.177 57.9697 20.8366 58.2844 21.0954C58.8055 21.5242 57.6501 21.6596 57.539 21.6596C56.8793 21.6596 56.6871 21.6931 56.0282 21.4633C55.7141 21.3537 55.6956 21.3157 55.4681 21.2036L54.6539 20.6058C54.3892 20.3458 54.3463 20.1322 53.9204 20.1322C53.6572 20.1322 53.4424 20.3621 53.3503 20.5414L53.1421 21.313C53.0178 21.8108 52.8964 22.4249 52.8964 23.0503ZM49.3916 23.0046C49.2343 22.9914 48.9472 22.9832 48.8136 22.9453C48.3294 22.8086 48.5862 22.1436 48.6714 21.8501C48.8069 21.3832 48.9123 20.4351 49.1054 19.7544C49.2418 19.2731 49.336 18.9185 49.5663 18.529C49.7563 18.2078 50.0811 17.9403 50.4779 18.0409C50.5472 18.0586 50.5644 18.085 50.6433 18.1034L50.2592 19.246C49.9774 20.1215 49.6269 21.9932 49.3916 23.0046Z"
        fill="#2B2A29" />
    <path
        d="M68.1643 18.1938L70.274 16.2381C70.3646 16.1541 70.5458 16.145 70.647 16.2182L73.4295 18.2423C73.6085 18.3472 73.6153 18.494 73.5781 18.6058C73.4906 18.7016 73.3783 18.6841 73.2777 18.6109L71.7313 17.478L70.9034 18.1511C70.7828 18.2134 70.6536 18.2383 70.5023 18.17C70.5023 18.17 69.8649 17.6229 69.5427 17.445L68.3778 18.5295C68.1194 18.7236 67.936 18.4711 68.1643 18.1938Z"
        fill="#2B2A29" />
    <path fill-rule="evenodd" clip-rule="evenodd"
        d="M59.7836 28.4482C59.7456 28.5091 59.7403 28.5934 59.7702 28.6586C59.8486 28.83 60.0772 28.8443 60.1769 28.6846C60.1947 28.6544 60.2153 28.6245 60.2351 28.5953C60.3788 28.385 60.5441 28.186 60.7137 27.9965C60.8824 27.8098 60.6671 27.5144 60.4265 27.6449C60.4063 27.6572 60.3893 27.671 60.3732 27.6888C60.1664 27.9197 59.9626 28.1671 59.7954 28.4289L59.7836 28.4482ZM66.3903 17.7865C66.4546 17.6938 66.4425 17.567 66.3602 17.4888C66.2586 17.3921 66.0942 17.4082 66.0139 17.5239C65.8114 17.8119 65.6942 18.1362 65.6592 18.4861C65.6496 18.5758 65.698 18.6639 65.7756 18.7078C65.923 18.7879 66.098 18.6952 66.116 18.5284C66.144 18.256 66.2326 18.0108 66.3903 17.7865ZM66.3828 19.7248C66.2609 19.5068 65.9341 19.6056 65.9526 19.8542C65.9562 19.8877 65.9634 19.9126 65.9792 19.9428C66.1244 20.2145 66.3448 20.524 66.5733 20.7313C66.6531 20.8075 66.7768 20.8151 66.8658 20.7502C66.9814 20.6646 66.9928 20.498 66.8892 20.3983C66.6903 20.2134 66.5107 19.9638 66.3828 19.7248ZM67.9645 20.9088C67.7018 20.89 67.6173 21.263 67.8742 21.3556C67.8936 21.3617 67.9103 21.3656 67.9307 21.367L67.9704 21.3698C68.2724 21.3885 68.5758 21.3851 68.8778 21.3665C69.1422 21.3476 69.1743 20.971 68.9082 20.9117C68.89 20.9082 68.8696 20.9066 68.8507 20.9079C68.8108 20.9112 68.7692 20.9124 68.7292 20.9142C68.469 20.9267 68.2242 20.9237 67.9645 20.9088ZM70.2068 20.7764C69.9658 20.8023 69.9254 21.15 70.1694 21.2252C70.2009 21.2336 70.2272 21.2363 70.2601 21.2328C70.5617 21.1992 70.8626 21.161 71.1646 21.1304L71.1683 21.13C71.385 21.1067 71.4521 20.8251 71.2639 20.7051C71.2186 20.6794 71.1739 20.6674 71.1215 20.6729L71.0138 20.6843C70.7445 20.7127 70.476 20.7464 70.2068 20.7764ZM72.5219 20.6061C72.2864 20.6061 72.199 20.9099 72.4047 21.0354C72.4419 21.0555 72.4728 21.064 72.5148 21.0654C72.8133 21.0694 73.113 21.0862 73.4098 21.1168C73.6548 21.1432 73.7629 20.8108 73.5458 20.6879C73.5173 20.6725 73.4899 20.6635 73.4578 20.66C73.1475 20.6278 72.8337 20.6103 72.5219 20.6061ZM74.8476 20.919C74.7867 20.9009 74.7192 20.9111 74.665 20.9441C74.4953 21.0522 74.5299 21.3038 74.7222 21.3608C74.9989 21.4365 75.2848 21.5435 75.5437 21.6676C75.7797 21.7768 75.9864 21.4795 75.8028 21.2956C75.7853 21.279 75.7646 21.2639 75.7428 21.2538C75.4608 21.1185 75.1493 21.0014 74.8476 20.919ZM76.9165 22.1237C76.7552 21.9366 76.4499 22.1017 76.5244 22.3447C76.5353 22.3749 76.5476 22.3986 76.5685 22.4229C76.7542 22.6383 76.891 22.8724 76.9899 23.139C77.0799 23.3824 77.4444 23.3153 77.4344 23.0469C77.4328 23.0245 77.4289 23.0034 77.421 22.982C77.303 22.6634 77.1383 22.3809 76.9165 22.1237ZM77.5778 24.4498C77.6137 24.1991 77.264 24.0788 77.1429 24.3213C77.1329 24.344 77.1269 24.3631 77.1235 24.3875C77.0898 24.6531 77.0064 24.8925 76.8277 25.0949C76.6759 25.2651 76.8289 25.5249 77.0516 25.4733C77.0944 25.4634 77.1336 25.4392 77.1639 25.4074C77.4062 25.1406 77.533 24.8044 77.5778 24.4498ZM75.793 26.0225C76.0585 25.9846 76.0577 25.5967 75.7824 25.5661C75.7653 25.5649 75.7486 25.5649 75.7317 25.5673C75.4383 25.6079 75.1445 25.62 74.8487 25.619C74.5939 25.619 74.5248 25.9764 74.7755 26.0668C74.7993 26.0741 74.8213 26.0783 74.8463 26.0783C75.1639 26.0794 75.4784 26.066 75.793 26.0225ZM73.4529 26.0013C73.4791 26.0042 73.5047 26.0013 73.5299 25.9956C73.7795 25.9282 73.7506 25.5714 73.4955 25.544C73.1936 25.5164 72.8898 25.4846 72.589 25.4475C72.3134 25.418 72.2265 25.8125 72.5007 25.8971C72.5121 25.9001 72.5235 25.9026 72.5351 25.9038C72.8403 25.9403 73.1467 25.9733 73.4529 26.0013ZM71.1666 25.7292C71.269 25.7438 71.3667 25.6862 71.4081 25.5921C71.4693 25.4524 71.3763 25.2952 71.2278 25.2739C70.9249 25.2332 70.6221 25.1918 70.3194 25.1503C70.2684 25.143 70.2142 25.1542 70.1701 25.1811C69.9853 25.2938 70.0432 25.5749 70.2573 25.6055L71.1666 25.7292ZM68.8946 25.42C68.9344 25.4258 68.9748 25.4199 69.0118 25.405C69.2307 25.3086 69.1851 24.9975 68.9552 24.9647C68.6468 24.9237 68.3429 24.8831 68.0325 24.857C67.7808 24.839 67.6868 25.1789 67.9142 25.2928C67.9418 25.305 67.9656 25.3127 67.9955 25.3149C68.2979 25.3403 68.5941 25.3801 68.8946 25.42ZM66.6501 25.2877C66.7461 25.2842 66.8359 25.214 66.8602 25.1201C66.9012 24.9675 66.7862 24.8231 66.6285 24.8287C66.3169 24.8424 66.0027 24.8708 65.6938 24.9147C65.445 24.9503 65.4265 25.3086 65.6772 25.3665C65.7059 25.3719 65.7293 25.3737 65.7587 25.3695C66.054 25.328 66.3522 25.3008 66.6501 25.2877ZM64.4491 25.6544C64.6876 25.5836 64.6586 25.2245 64.3937 25.2049C64.3669 25.2039 64.3426 25.2069 64.317 25.2144C64.0163 25.3037 63.7205 25.4111 63.431 25.5318C63.194 25.6323 63.2766 25.9921 63.5403 25.9725C63.5644 25.9698 63.5857 25.9652 63.6086 25.9554C63.8831 25.8409 64.1638 25.739 64.4491 25.6544ZM62.4208 26.571C62.6406 26.4334 62.4963 26.0853 62.2353 26.1557C62.2146 26.1618 62.1957 26.1702 62.1774 26.1816C61.91 26.3474 61.6544 26.5307 61.4066 26.7242C61.1943 26.8983 61.4033 27.2293 61.6523 27.1095C61.6662 27.102 61.6792 27.0944 61.6914 27.0844C61.9226 26.9015 62.1703 26.7264 62.4208 26.571Z"
        fill="#2B2A29" />
    <path
        d="M47.0742 4.50106C47.1019 4.50649 56.6566 6.38436 67.3365 7.23525C69.0081 7.36847 70.4964 7.50192 71.819 7.63242C72.0097 7.94933 72.2018 8.25743 72.3904 8.55476C72.5646 8.82926 72.7397 9.10387 72.9166 9.37793C71.3173 9.2098 69.4295 9.03361 67.2096 8.85678C58.3603 8.15162 50.2712 6.7464 47.6501 6.26418C46.906 14.1153 43.9842 27.2024 43.2074 30.5996L54.3499 32.6644L65.3001 28.8284C65.4224 28.7857 65.5567 28.7716 65.6936 28.7934L80.5292 31.1641C80.9424 26.7403 80.4446 13.4476 80.323 10.4102C80.1494 10.3743 80.0582 10.355 79.7935 10.3067C80.1171 9.82001 80.3084 9.3055 80.6216 8.81382C81.1064 8.91246 81.3139 8.96933 81.3163 8.96988C81.6849 9.06863 81.9261 9.40631 81.9182 9.77216C81.9614 10.7986 82.6935 28.4823 82.0285 32.2373C81.9514 32.6798 81.5307 32.9758 81.0891 32.8986L81.0439 32.8894L65.6414 30.4281L54.681 34.2676C54.5369 34.3179 54.3883 34.3251 54.249 34.2958L42.08 32.0408C41.6401 31.9601 41.3488 31.5373 41.4294 31.0966L41.4373 31.0587L41.4357 31.0584C41.4472 31.0091 45.4438 13.9654 46.1093 5.23863C46.1425 4.79089 46.532 4.45495 46.979 4.48833C47.0113 4.49073 47.043 4.49508 47.0742 4.50106Z"
        fill="#2B2A29" />
</svg>