<svg width="28" height="21" viewBox="0 0 28 21" fill="none" xmlns="http://www.w3.org/2000/svg">
<path d="M23.5229 20.909H4.32636C1.82164 20.909 -0.21582 18.8716 -0.21582 16.3668V4.24799C-0.21582 1.74358 1.82195 -0.294189 4.32636 -0.294189H23.5229C26.0273 -0.294189 28.0648 1.74358 28.0648 4.24799V16.3668C28.0648 18.8716 26.0273 20.909 23.5229 20.909ZM4.32636 1.03406C2.55411 1.03406 1.11242 2.47574 1.11242 4.24799V16.3668C1.11242 18.1391 2.55411 19.5811 4.32636 19.5811H23.5229C25.2951 19.5811 26.7368 18.1391 26.7368 16.3668V4.24799C26.7368 2.47574 25.2951 1.03406 23.5229 1.03406H4.32636Z" fill="black"/>
<path d="M3.25507 4.31038C6.65 7.61858 10.0449 10.9265 13.4399 14.2347C14.0727 14.8512 15.044 13.8821 14.4102 13.2643C11.0153 9.95644 7.62034 6.64824 4.22541 3.34035C3.59255 2.72352 2.62127 3.69292 3.25507 4.31038Z" fill="black"/>
<path d="M14.4099 14.2346C17.8048 10.9267 21.1997 7.61853 24.5947 4.31065C25.2282 3.69319 24.2575 2.72348 23.6243 3.34031C20.2294 6.6482 16.8345 9.9564 13.4396 13.2643C12.8061 13.8817 13.7767 14.8514 14.4099 14.2346Z" fill="black"/>
<path d="M24.5569 16.5764C22.2979 14.434 20.0386 12.2919 17.7796 10.1495C17.1389 9.5421 16.167 10.5106 16.8093 11.1198C19.0683 13.2623 21.3276 15.4043 23.5866 17.5468C24.2273 18.1542 25.1992 17.1854 24.5569 16.5764Z" fill="black"/>
<path d="M4.3235 17.5468C6.58249 15.4044 8.8418 13.2623 11.1008 11.1199C11.7428 10.511 10.7715 9.54187 10.1304 10.1496C7.87146 12.292 5.61216 14.4341 3.35317 16.5765C2.7112 17.1855 3.68248 18.1549 4.3235 17.5468Z" fill="black"/>
</svg>
