<svg width="1691" height="651" viewBox="0 0 1691 651" fill="none" xmlns="http://www.w3.org/2000/svg">
<path d="M542.037 599.21C545.136 609.093 554.433 615.956 553.4 628.585C544.878 625.839 537.904 622.271 534.289 613.211C530.931 604.7 526.282 596.739 522.667 588.503C516.727 574.776 513.627 559.402 505.621 546.499C499.164 536.067 498.39 524.811 497.356 513.006C497.098 510.81 496.582 507.79 499.164 507.241C501.489 506.692 504.33 510.261 507.429 515.477C513.627 526.458 520.084 544.578 521.892 548.421C529.64 565.168 536.613 581.914 542.037 599.21ZM1690.03 602.504C1688.48 598.661 1687.19 594.543 1686.42 590.425C1671.69 578.62 1657.23 566.815 1640.96 557.206C1633.21 552.539 1625.98 547.048 1619.27 541.009C1619.27 539.911 1619.01 538.812 1617.98 537.714C1610.23 528.38 1602.22 519.321 1594.47 509.986C1588.79 499.829 1580.79 491.318 1572 484.455C1558.06 473.473 1545.14 461.943 1533.52 448.765C1518.28 431.47 1500.21 424.332 1478.25 426.803C1466.37 428.175 1457.59 422.136 1452.68 411.429C1445.71 396.33 1433.06 385.074 1420.4 375.74C1408.78 367.229 1391.48 359.268 1383.47 346.914C1380.11 341.972 1375.46 337.854 1372.88 332.089C1364.87 315.068 1350.67 307.381 1334.92 300.517C1328.2 297.772 1323.29 292.281 1319.16 286.516C1314.51 280.202 1309.61 274.986 1304.44 268.946C1299.53 263.455 1297.98 254.945 1293.33 248.631C1287.91 241.218 1281.2 234.904 1274.22 229.139C1263.12 219.805 1252.01 210.471 1242.71 199.215C1236 190.979 1230.06 185.763 1220.24 192.077C1212.24 197.293 1204.49 203.058 1197.52 209.647C1194.42 212.667 1191.32 215.687 1188.74 218.981C1186.41 222.001 1184.6 228.041 1181.76 230.511C1167.56 243.14 1150.25 251.925 1136.05 264.554C1131.4 268.672 1125.98 267.299 1122.88 261.259C1113.58 243.689 1100.41 229.688 1087.5 215.412C1084.65 212.118 1081.3 209.372 1077.94 207.176C1067.09 200.587 1058.57 191.253 1044.62 193.175C1044.11 192.626 1043.85 192.351 1043.33 191.802C1025.77 175.056 1011.05 155.564 995.036 137.445C991.162 133.052 988.58 127.287 984.964 122.62C978.507 114.109 969.21 109.991 960.17 105.324C943.125 97.0882 928.145 84.7343 913.166 72.9293C890.955 55.6337 871.327 36.1419 858.155 9.78666C851.957 -2.29281 842.917 -2.56738 832.845 7.86489C815.283 25.9841 799.27 45.7505 784.033 66.066C774.993 78.1455 764.663 88.5777 753.041 97.6373C750.458 99.5591 748.133 101.755 745.551 103.952C732.121 111.089 720.757 121.247 711.718 134.425C711.201 135.248 710.943 136.072 710.943 136.896C699.838 147.328 689.765 157.76 681.501 170.389C668.071 190.704 654.383 211.02 641.986 231.884C628.814 254.121 609.703 270.319 592.657 288.438C581.293 300.517 568.38 311.499 554.175 320.284C545.652 325.5 537.646 324.676 529.382 318.362C525.766 315.617 521.892 312.597 518.018 310.126C518.018 308.753 517.501 307.381 515.952 306.283C504.588 298.047 491.416 289.811 480.827 279.927C469.722 269.221 458.617 258.514 447.511 247.807C440.021 240.669 430.207 226.393 418.585 228.041C413.936 228.864 403.347 232.159 401.023 237.1C398.957 241.493 397.924 246.16 395.858 250.552C391.209 260.436 385.011 268.946 376.746 275.26C357.376 290.909 341.88 311.224 324.318 328.794C305.206 347.737 281.704 359.542 260.784 376.289C256.135 377.387 253.036 383.427 248.129 384.25C238.315 385.897 229.017 390.839 220.495 396.879C206.29 407.311 202.933 425.979 191.052 438.333C187.695 441.628 184.854 445.471 181.238 448.491C178.397 450.962 174.265 452.609 171.682 455.354C165.742 460.57 159.802 465.512 153.604 470.454C141.982 480.062 130.36 487.2 117.446 494.338C93.4274 508.065 71.2165 523.439 57.0118 549.245C47.9725 565.717 36.3505 580.267 26.2781 595.915C18.0136 608.544 11.0404 622.271 0.709717 634.35C2.77585 635.448 3.55065 636.272 4.06718 635.997C22.9206 628.585 42.2906 631.056 61.4024 632.154C78.1897 632.977 90.07 624.192 102.725 613.211C113.831 603.602 128.035 595.092 140.432 587.954C145.339 584.934 152.054 583.561 156.703 580.267C161.093 577.247 163.676 571.207 167.808 567.638C176.848 559.951 182.529 549.794 188.211 539.087C190.794 533.871 196.218 531.4 201.899 530.302C214.813 528.106 223.077 519.87 228.759 507.516C235.216 493.789 246.063 483.631 257.427 474.572C262.076 470.728 267.241 464.963 272.664 463.041C280.413 460.296 290.485 461.394 298.491 460.021C319.152 456.727 336.456 443.824 351.178 428.45C366.932 411.703 382.17 394.957 391.467 372.445C393.275 367.778 399.473 362.287 404.897 357.895C419.102 346.914 432.532 334.834 429.691 312.597C428.916 306.283 430.724 299.968 432.015 293.654C435.889 292.556 439.247 290.085 440.021 285.418C440.021 285.144 440.021 284.869 440.021 284.595C442.862 280.751 444.928 282.124 452.418 287.34C452.676 287.614 452.935 287.614 453.193 287.889C458.358 293.654 464.298 298.321 470.497 302.439C493.999 323.578 518.018 343.619 546.685 357.071C563.473 365.033 575.095 378.759 577.677 399.349C578.969 410.605 584.651 420.489 589.816 430.097C592.657 435.588 593.173 447.118 600.147 448.491C601.955 448.765 604.279 449.04 605.57 450.413C606.603 451.511 606.862 453.158 607.12 454.805C609.444 466.336 618.225 471.826 626.49 478.69C652.833 500.378 671.428 535.518 702.42 550.343C717.916 557.755 730.83 569.835 743.743 581.64C766.212 601.955 789.714 625.29 817.091 637.644C820.965 639.292 826.388 643.959 829.229 639.017C831.812 634.625 828.196 629.134 824.58 625.29C818.382 618.976 812.184 612.662 805.727 606.897C800.045 601.955 797.721 595.366 795.913 587.954C793.847 579.169 796.429 573.953 801.853 567.089C808.568 558.853 811.151 549.245 814.25 538.812C816.058 532.224 819.673 526.458 825.355 522.615C831.554 518.497 839.043 518.222 844.983 513.83C859.446 503.123 867.453 477.591 868.486 459.747C869.519 441.079 871.327 422.41 872.101 403.742C872.36 398.526 874.168 393.035 878.816 390.564C881.916 388.643 885.79 388.094 889.147 387.27C901.286 383.976 896.637 371.896 898.703 362.837C897.67 366.955 905.676 363.386 906.193 362.837C912.391 358.993 917.815 350.208 925.563 349.659C932.794 349.11 937.443 357.071 941.317 362.562C948.032 372.171 955.263 381.23 964.561 388.368C984.447 404.017 999.685 423.783 1006.14 449.589C1007.43 454.531 1010.79 463.041 1012.86 467.708C1021.12 485.827 1027.58 504.77 1036.88 522.34C1038.17 525.086 1049.79 545.401 1056.25 545.95C1058.31 546.225 1059.6 545.676 1059.6 542.93C1059.09 532.773 1051.6 526.733 1046.95 518.771C1045.91 516.85 1044.62 509.437 1042.56 502.849C1035.33 478.141 1026.54 454.256 1014.92 431.195C1011.82 425.156 1011.31 416.92 1007.95 410.331C1002.01 398.526 991.679 390.29 983.156 380.956C966.369 362.288 952.422 343.07 956.038 315.068C959.396 313.97 960.945 317.264 963.27 319.186C979.024 330.991 995.553 342.247 1013.12 350.757C1021.38 354.601 1028.61 357.346 1036.1 363.111C1046.95 371.622 1055.47 382.603 1066.06 391.388C1075.87 399.349 1086.2 406.762 1092.66 418.292C1098.34 428.724 1107.9 436.137 1115.39 444.922C1122.1 452.883 1124.43 463.316 1128.04 472.924C1129.85 477.866 1131.92 482.533 1135.28 486.651C1144.57 498.731 1143.8 515.203 1148.96 529.204C1151.8 537.165 1152.32 547.048 1157.49 554.186C1162.65 561.324 1167.04 569.56 1170.4 577.796C1173.76 586.032 1175.05 596.19 1181.76 601.955C1184.6 604.426 1187.7 606.622 1190.54 609.093C1192.35 614.309 1195.71 619.251 1199.58 624.467C1201.39 603.877 1191.84 585.483 1183.57 567.913C1172.47 544.303 1170.66 518.222 1166.53 492.416C1171.95 492.416 1175.56 495.162 1178.66 497.907C1197 512.732 1216.89 525.909 1228.77 547.872C1231.35 552.539 1236 555.01 1240.39 556.932C1250.72 561.324 1258.98 567.638 1264.93 577.796C1268.8 584.385 1273.71 587.954 1280.16 590.425C1287.91 593.445 1295.14 597.837 1302.89 601.131C1312.45 604.975 1322 605.25 1331.3 600.582C1334.4 599.21 1333.37 593.994 1328.98 592.072C1322 588.777 1315.29 584.934 1308.06 582.463C1297.98 578.894 1289.72 572.58 1283.78 564.344C1274.48 550.892 1262.08 541.832 1249.69 532.498C1235.48 521.791 1223.6 508.339 1216.37 491.593C1210.69 478.69 1201.91 472.101 1190.03 467.983C1182.28 465.237 1174.27 462.767 1167.56 458.1C1137.08 428.999 1113.58 392.486 1081.81 364.484C1064.51 349.11 1046.17 333.461 1024.48 323.304C1007.69 315.617 990.646 307.93 979.024 291.458C978.766 291.183 978.507 290.909 978.249 290.634C977.991 290.36 977.991 290.085 977.733 289.811C976.183 287.614 974.375 285.693 972.567 284.32C972.309 284.045 972.309 284.045 972.051 283.771C965.336 276.633 957.329 270.868 948.032 267.848C938.218 264.279 923.238 272.515 917.298 284.32C916.782 285.418 916.782 287.065 916.007 287.889C904.643 299.145 897.153 313.695 886.823 326.049C874.684 340.325 859.963 342.796 844.725 351.581C833.62 358.169 827.421 372.445 818.899 382.328C808.568 394.682 799.27 407.86 795.138 424.057C793.847 429.823 789.973 434.215 785.84 438.059C778.351 445.746 769.828 451.511 760.53 456.452C757.173 458.1 753.557 460.021 751.491 463.041C741.16 477.042 724.889 481.16 711.976 491.044C706.552 495.162 702.162 494.613 696.997 488.573C689.765 480.062 680.209 474.297 676.077 462.492C673.753 456.178 672.461 452.609 673.753 450.413C682.534 448.491 690.798 445.746 699.063 441.628C702.678 439.98 701.645 435.588 699.063 433.666C711.201 411.978 723.082 391.663 727.73 368.053C732.379 344.443 731.088 319.735 736.77 296.125C739.611 284.045 743.743 273.339 754.074 265.103C763.629 257.69 768.795 245.336 775.768 235.179C778.092 231.884 778.092 227.492 777.834 223.099C776.543 204.156 778.351 181.919 793.847 169.84C803.661 161.878 811.409 151.171 815.799 138.817C820.448 125.914 819.157 112.188 828.196 101.206C836.461 91.323 843.176 80.6163 845.5 67.4387C846.533 61.948 850.407 58.1046 854.281 55.6338C862.804 50.1431 878.558 73.2038 883.982 78.1454C901.802 94.6174 921.43 109.442 940.8 123.718C948.29 129.209 956.813 133.601 964.819 138.543C976.441 145.406 983.414 159.133 991.937 169.565C995.811 174.507 995.553 178.076 989.096 177.801C972.309 176.977 958.879 186.861 944.158 193.449C940.026 195.371 935.893 197.567 934.085 204.156C942.608 203.058 950.356 202.509 958.104 201.136C967.402 199.215 976.183 202.784 984.964 205.529C994.52 208.549 1004.08 208.549 1013.89 209.647C1034.81 212.118 1058.83 217.334 1073.03 234.629C1087.5 252.2 1099.89 271.417 1111.26 291.183C1121.07 307.93 1131.66 324.402 1141.99 340.599C1143.54 343.07 1145.86 347.188 1148.96 345.541C1152.06 343.894 1150.25 339.776 1149.74 336.756C1149.22 333.187 1148.19 329.893 1148.71 325.5C1164.46 329.069 1177.63 337.305 1187.7 349.11C1212.5 378.485 1234.71 410.056 1257.44 441.079C1263.12 448.765 1265.7 457.001 1268.28 465.512C1271.12 474.572 1274.74 483.082 1280.94 490.22C1290.24 500.927 1295.14 514.379 1302.63 526.184C1304.44 528.929 1305.47 531.949 1309.61 531.949C1311.41 527.557 1310.9 521.791 1309.09 519.046C1300.31 505.594 1300.31 489.396 1296.18 474.572C1294.63 468.806 1294.11 465.237 1295.4 462.767C1299.53 463.316 1303.67 463.59 1308.06 464.139C1322 471.277 1335.17 480.062 1349.89 485.827C1360.23 489.671 1369.26 495.436 1376.75 503.947C1385.54 513.83 1395.87 521.242 1406.46 528.106C1409.3 530.027 1410.07 535.518 1411.62 539.361C1416.53 551.715 1418.34 564.893 1420.4 578.071C1421.69 586.307 1423.76 594.268 1430.73 603.328C1428.41 583.287 1424.53 565.442 1424.28 545.95C1438.22 554.186 1452.94 557.755 1462.24 572.031C1466.63 578.62 1474.9 581.64 1481.35 586.032C1489.88 591.523 1498.91 595.641 1507.7 599.484C1517.51 603.877 1527.84 606.622 1539.46 606.897C1537.91 600.857 1533.01 599.21 1529.39 597.013C1499.69 580.541 1474.12 558.304 1450.36 533.322C1443.13 525.635 1436.41 517.124 1429.44 508.888C1416.53 493.789 1404.65 477.591 1388.63 465.512C1374.69 454.805 1365.13 439.431 1353.51 426.254C1339.31 410.056 1321.49 398.251 1306.51 383.152C1288.17 364.484 1266.22 351.581 1244.78 337.305C1232.64 329.069 1229.54 314.244 1225.93 300.517C1222.83 288.987 1222.83 277.182 1226.19 265.926C1229.8 253.847 1230.83 241.767 1230.83 229.413C1230.83 225.57 1231.09 222.001 1234.19 220.354C1237.29 218.707 1239.61 222.275 1242.2 224.197C1261.31 238.473 1271.9 260.161 1285.33 279.653C1289.98 286.516 1294.37 293.38 1295.4 302.165C1296.18 307.655 1300.05 310.95 1304.7 313.421C1313.74 318.362 1322.52 323.304 1331.56 327.971C1340.34 332.638 1347.31 338.678 1352.48 347.737C1365.65 372.72 1383.21 392.212 1409.81 402.644C1422.47 407.585 1433.06 419.116 1441.84 430.921C1444.42 434.49 1445.45 439.157 1442.1 442.451C1436.93 447.393 1436.93 455.354 1431.77 460.296C1428.41 463.316 1430.99 468.257 1435.12 467.434C1437.96 466.885 1441.32 462.218 1443.39 460.296C1452.94 451.511 1459.92 447.118 1472.83 446.569C1485.23 446.295 1496.07 450.413 1507.44 455.629C1538.43 470.454 1559.61 496.809 1581.56 522.615C1592.41 535.518 1602.74 549.519 1618.23 557.206C1623.14 559.677 1625.21 564.344 1626.5 569.56C1628.82 578.071 1633.73 584.934 1638.9 592.072C1640.7 591.248 1642.77 590.699 1644.84 590.15C1643.54 582.738 1638.38 576.973 1638.12 569.835C1641.74 569.56 1643.8 572.305 1645.87 573.953C1660.85 584.659 1674.28 595.366 1690.03 602.504ZM700.354 609.093C698.03 603.328 695.447 598.112 689.765 593.445C687.441 588.503 683.567 584.11 677.885 580.541C654.899 565.442 630.622 553.088 607.378 538.812C598.597 533.322 591.882 524.811 585.167 516.85C577.936 508.339 570.188 502.574 561.148 496.534C537.646 480.611 514.402 462.492 493.999 442.177C493.224 436.411 488.317 432.019 483.152 430.921C482.894 430.921 482.894 430.921 482.635 430.921C477.987 421.312 469.205 413.076 460.166 411.703C454.226 410.88 449.319 413.9 445.187 417.743C435.373 426.803 425.817 436.961 415.486 445.471C404.897 454.256 393.533 464.414 381.911 471.277C370.806 477.866 356.859 475.944 344.979 475.67C334.907 475.395 327.159 479.239 320.444 486.926C310.113 498.73 295.134 505.045 285.578 517.124C284.803 518.222 275.764 518.222 273.956 518.497C269.824 519.595 265.691 520.968 262.076 523.164C254.586 527.282 249.162 533.596 242.706 539.361C227.21 553.088 212.747 568.187 198.284 583.287C195.185 586.581 191.569 585.758 189.503 588.228C174.007 604.975 153.604 617.878 146.63 642.311C145.856 645.057 143.531 647.253 145.081 650.822C157.736 639.017 170.649 627.487 183.046 615.407C188.211 610.466 196.218 609.642 201.383 604.7C203.191 603.053 213.78 590.974 216.621 595.915C218.687 599.484 217.654 605.799 214.813 610.74C208.614 621.172 202.933 631.605 195.443 641.213C210.422 634.35 220.236 622.271 228.243 607.995C236.765 592.346 247.613 579.169 262.334 569.286C280.671 556.932 301.074 548.97 319.411 536.891C324.834 533.322 329.225 528.106 335.165 525.635C338.264 526.184 342.655 527.008 345.754 526.184C346.529 526.733 347.304 527.557 348.078 528.106C346.787 531.674 344.463 535.243 342.138 538.263C331.033 552.539 320.186 567.089 308.305 580.816C307.531 581.914 306.756 582.738 306.239 583.836C301.074 587.679 296.683 592.072 293.068 597.563C281.446 608.818 268.274 618.153 258.46 631.605C252.003 640.39 253.553 646.979 263.883 649.175C279.896 652.469 295.134 649.724 308.305 639.017C319.152 630.507 330.775 626.389 344.204 626.114C356.601 625.839 367.19 621.172 376.746 612.387C385.011 604.7 396.374 601.131 403.606 591.797C412.903 579.992 422.717 568.462 426.333 553.363C427.883 546.774 432.273 542.656 435.889 537.714C440.021 532.224 449.319 530.576 454.742 527.282C462.749 522.066 464.298 513.006 465.59 503.947C467.139 491.044 473.596 482.533 481.602 474.297C487.026 468.806 492.449 468.532 497.356 475.121C509.753 492.416 527.315 501.476 544.878 510.81C555.208 516.301 565.022 522.889 572.512 533.871C580.518 545.401 587.75 557.481 595.24 569.56C600.405 578.071 604.021 592.346 611.769 598.112C623.649 606.897 631.397 614.309 639.145 627.487C643.019 634.35 647.668 640.664 655.157 647.802C653.091 623.369 648.701 602.504 631.397 587.954C624.424 581.914 622.616 573.953 620.808 564.069C639.92 570.933 655.157 581.914 669.362 594.817C676.852 601.681 684.342 609.917 692.864 615.682C694.672 623.918 704.228 623.369 708.102 629.683C706.294 626.938 706.036 621.172 704.745 617.878C702.42 614.584 701.387 611.564 700.354 609.093Z" fill="url(#paint0_linear_1556_1280)"/>
<defs>
<linearGradient id="paint0_linear_1556_1280" x1="845.371" y1="0.36377" x2="845.371" y2="650.822" gradientUnits="userSpaceOnUse">
<stop offset="0.348958" stop-opacity="0.06"/>
<stop offset="0.947917" stop-opacity="0"/>
</linearGradient>
</defs>
</svg>
