<svg width="28" height="29" viewBox="0 0 28 29" fill="none" xmlns="http://www.w3.org/2000/svg">
<path fill-rule="evenodd" clip-rule="evenodd" d="M3.23325 7.32123C-0.414957 12.7813 0.486604 20.0898 5.35234 24.4996C10.2181 28.9093 17.5797 29.0898 22.6557 24.9237C27.7316 20.7576 28.9901 13.502 25.6138 7.86979C22.2375 2.23756 15.2451 -0.0718312 9.17846 2.44165C6.75784 3.44454 4.68891 5.14263 3.23325 7.32123Z" stroke="black" stroke-width="1.3628" stroke-linecap="round" stroke-linejoin="round"/>
<path fill-rule="evenodd" clip-rule="evenodd" d="M8.45523 9.34665C9.28805 8.46841 9.59089 8.22234 9.93727 8.10878C10.1849 8.04301 10.4449 8.03911 10.6944 8.09742C11.0199 8.19206 11.1051 8.26399 12.1726 9.32773C13.119 10.2628 13.2042 10.3631 13.2932 10.5467C13.4656 10.8678 13.4925 11.2474 13.367 11.5896C13.2742 11.8489 13.138 12.0212 12.5701 12.5928L12.1916 12.9713C12.0915 13.0713 12.0684 13.2249 12.1348 13.3499C12.9616 14.7573 14.1344 15.93 15.5418 16.7569C15.7036 16.8428 15.9025 16.8146 16.0339 16.6868L16.3916 16.3348C16.6109 16.1049 16.8435 15.8882 17.0882 15.6856C17.4714 15.4514 17.9479 15.43 18.3507 15.6288C18.5399 15.7215 18.6138 15.7821 19.5829 16.7474C20.5804 17.7411 20.6088 17.7733 20.7185 18.0004C20.927 18.3773 20.927 18.8349 20.7185 19.2118C20.6106 19.4238 20.5463 19.5014 19.9841 20.0749C19.6453 20.4213 19.3273 20.7412 19.2762 20.7847C18.8133 21.168 18.2193 21.3561 17.6201 21.309C16.5241 21.2093 15.4633 20.8707 14.5121 20.3172C12.4046 19.2006 10.6105 17.5738 9.29373 15.5852C9.00895 15.1695 8.75587 14.7329 8.53662 14.2792C7.94378 13.2632 7.63764 12.1053 7.6508 10.929C7.69169 10.3139 7.98232 9.74218 8.45523 9.34665Z" stroke="black" stroke-width="1.3628" stroke-linecap="round" stroke-linejoin="round"/>
</svg>
